<svg width="960" height="640" viewBox="0 0 960 640" fill="none" xmlns="http://www.w3.org/2000/svg" role="img">
  <rect width="960" height="640" rx="28" fill="#FBF7EA"/>
  <path d="M110 131C258 101 386 123 506 111C626 98 738 88 846 125" stroke="#D9CDAF" stroke-width="3" stroke-linecap="round" stroke-dasharray="11 18"/>
  <rect x="252" y="118" width="238" height="408" rx="42" fill="#EFF5EC" stroke="#2F4732" stroke-width="7"/>
  <rect x="279" y="165" width="184" height="276" rx="24" fill="#FBFEFA" stroke="#9AB48C" stroke-width="4"/>
  <circle cx="371" cy="479" r="12" fill="#2F4732"/>
  <path d="M327 280C354 312 388 312 415 280" stroke="#2F7D4F" stroke-width="8" stroke-linecap="round"/>
  <path d="M371 213V323" stroke="#2F7D4F" stroke-width="8" stroke-linecap="round"/>
  <path d="M331 254L371 294L411 254" stroke="#2F7D4F" stroke-width="8" stroke-linecap="round" stroke-linejoin="round"/>
  <path d="M550 168L718 141L773 481L605 508L550 168Z" fill="#FFF3C5" stroke="#746138" stroke-width="5" stroke-linejoin="round"/>
  <path d="M597 216L625 239L673 190" stroke="#2F7D4F" stroke-width="7" stroke-linecap="round" stroke-linejoin="round"/>
  <path d="M612 288L640 311L688 262" stroke="#2F7D4F" stroke-width="7" stroke-linecap="round" stroke-linejoin="round"/>
  <path d="M629 362L657 385L705 336" stroke="#2F7D4F" stroke-width="7" stroke-linecap="round" stroke-linejoin="round"/>
  <rect x="120" y="326" width="122" height="122" rx="8" fill="#E8F2DD" stroke="#4A6B43" stroke-width="5"/>
  <rect x="145" y="351" width="26" height="26" fill="#4A6B43"/>
  <rect x="192" y="351" width="26" height="26" fill="#4A6B43"/>
  <rect x="145" y="398" width="26" height="26" fill="#4A6B43"/>
  <rect x="192" y="398" width="26" height="26" fill="#4A6B43"/>
  <path d="M133 338L230 435M229 337L133 435" stroke="#E8F2DD" stroke-width="10" stroke-linecap="round"/>
  <path d="M775 263C814 277 836 314 829 353C822 392 789 418 750 419C711 420 676 395 669 356C662 317 686 279 724 265" fill="#D6ECF8" stroke="#477184" stroke-width="5"/>
  <path d="M713 341L744 371L792 314" stroke="#477184" stroke-width="8" stroke-linecap="round" stroke-linejoin="round"/>
  <path d="M142 219C173 190 230 198 250 236" stroke="#315C37" stroke-width="5" stroke-linecap="round"/>
  <path d="M193 244C181 280 156 304 120 313" stroke="#315C37" stroke-width="5" stroke-linecap="round"/>
  <path d="M193 244C221 277 252 288 290 278" stroke="#315C37" stroke-width="5" stroke-linecap="round"/>
  <path d="M167 311H282L270 373H179L167 311Z" fill="#C78C48" stroke="#5E3C21" stroke-width="5" stroke-linejoin="round"/>
</svg>
