<svg xmlns="http://www.w3.org/2000/svg" viewBox="0 0 100 100">
  <!-- White background with rounded corners -->
  <rect width="100" height="100" rx="18" ry="18" fill="#ffffff"/>
  <!-- Logo scaled and centered (original viewBox 292.4x253, target area ~70x61 centered) -->
  <g transform="translate(15, 19.7) scale(0.2394)">
    <path fill="#244E30" d="M105.3,190.6c3.4,2.1,5.3,1.6,8.1-0.9c18.1-16.2,38.5-29,61.2-37.6c6.1-2.3,12.7-4.2,19.8-0.2c-6.8,10.8-15.5,18.7-27.6,21.7c-4.9,1.2-9.6,2.7-14.1,4.4c-14.5,5.7-29.8,21.1-35.9,23.4c-1.5,0.5-2.9,0.7-2.9,0.7c-2.4,0.2-4.4-0.5-5.7-1"/>
    <path fill="#214A2D" d="M148.9,62.3c13.1,28.2,7.7,54.9-4.6,81.4c-17.5-18.1-17.6-74.7,0.1-89.5C146,56.9,147.4,59.4,148.9,62.3z"/>
    <path fill="#224B2E" d="M134.8,135.5c1.2,4,2.2,7.6,3.3,11.4c-20.2,0.4-45.9-28.6-46.3-52.3c2.1,0.3,4.2,0.3,6.1,0.9c18.4,5.6,29.2,18.9,35.6,36.3C133.8,132.9,134.2,134,134.8,135.5z"/>
    <path fill="#224B2E" d="M154.3,131.8c6.4-17.5,17.1-30.7,35.6-36.3c1.9-0.6,4-0.6,6.1-0.9c-0.3,23.6-26.1,52.6-46.3,52.3c1.1-3.7,2.1-7.4,3.3-11.4C153.5,134,153.9,132.9,154.3,131.8z"/>
    <path fill="#274F32" d="M105.4,141.6c12.3,0.9,22.9,4.7,31.4,13.7c-11.6,9.9-35.6,4.7-44.5-9.4C95.7,142.2,100.4,142.2,105.4,141.6z"/>
    <path fill="none" stroke="#244E30" stroke-width="8" stroke-miterlimit="10" d="M109.8,197.3c-29.3-13.1-49.7-42.4-49.7-76.6c0-46.3,37.5-83.8,83.8-83.8s83.8,37.5,83.8,83.8c0,33.3-19.4,62-47.5,75.5"/>
    <path fill="none" stroke="#244E30" stroke-width="8" stroke-linecap="round" stroke-linejoin="round" stroke-miterlimit="10" d="M180.2,196.3c-4,2.3-8.3,4.6-14.4,6.8c-11.5,4.3-18.5,6.4-18.9,1.9c0-0.5-0.2-0.3,0.1-2.9c0.3-2.6,0.4-4.7,0.4-6.1"/>
  </g>
</svg>
