<svg xmlns="http://www.w3.org/2000/svg" width="1280" height="720" viewBox="0 0 1280 720" fill="none">
  <rect width="1280" height="720" fill="#0B1320"/>
  <rect x="48" y="40" width="1184" height="640" rx="28" fill="#122033"/>
  <rect x="88" y="84" width="1104" height="72" rx="22" fill="#18304A"/>
  <rect x="112" y="106" width="320" height="28" rx="14" fill="#E8F3FF" fill-opacity="0.95"/>
  <rect x="968" y="102" width="184" height="36" rx="18" fill="#22C55E"/>
  <rect x="88" y="188" width="1104" height="136" rx="24" fill="#0F1A2A" stroke="#29405E"/>
  <rect x="112" y="214" width="160" height="22" rx="11" fill="#F8FAFC"/>
  <rect x="112" y="252" width="312" height="16" rx="8" fill="#7DD3FC" fill-opacity="0.65"/>
  <rect x="112" y="286" width="184" height="18" rx="9" fill="#1D4ED8" fill-opacity="0.55"/>
  <rect x="864" y="220" width="140" height="44" rx="22" fill="#22C55E"/>
  <rect x="1020" y="220" width="140" height="44" rx="22" fill="#1E293B"/>
  <rect x="88" y="352" width="536" height="288" rx="24" fill="#0F1A2A" stroke="#29405E"/>
  <rect x="656" y="352" width="536" height="288" rx="24" fill="#0F1A2A" stroke="#29405E"/>
  <rect x="112" y="380" width="168" height="22" rx="11" fill="#F8FAFC"/>
  <rect x="680" y="380" width="188" height="22" rx="11" fill="#F8FAFC"/>
  <rect x="112" y="422" width="224" height="176" rx="20" fill="#16314A"/>
  <rect x="360" y="422" width="224" height="176" rx="20" fill="#16314A"/>
  <rect x="680" y="422" width="464" height="24" rx="12" fill="#94A3B8" fill-opacity="0.7"/>
  <rect x="680" y="468" width="404" height="20" rx="10" fill="#64748B" fill-opacity="0.65"/>
  <rect x="680" y="506" width="436" height="20" rx="10" fill="#64748B" fill-opacity="0.65"/>
  <rect x="680" y="544" width="360" height="20" rx="10" fill="#64748B" fill-opacity="0.65"/>
  <circle cx="184" cy="510" r="42" fill="#22C55E" fill-opacity="0.3"/>
  <circle cx="432" cy="510" r="42" fill="#38BDF8" fill-opacity="0.3"/>
</svg>
