<svg xmlns="http://www.w3.org/2000/svg" width="540" height="720" viewBox="0 0 540 720" fill="none">
  <rect width="540" height="720" fill="#0B1320"/>
  <rect x="36" y="24" width="468" height="672" rx="36" fill="#122033"/>
  <rect x="64" y="64" width="412" height="44" rx="18" fill="#F8FAFC" fill-opacity="0.96"/>
  <rect x="64" y="132" width="412" height="84" rx="22" fill="#0F1A2A" stroke="#29405E"/>
  <rect x="88" y="158" width="168" height="16" rx="8" fill="#E2E8F0"/>
  <rect x="88" y="184" width="240" height="12" rx="6" fill="#7DD3FC" fill-opacity="0.7"/>
  <rect x="64" y="244" width="198" height="120" rx="22" fill="#16314A"/>
  <rect x="278" y="244" width="198" height="120" rx="22" fill="#16314A"/>
  <rect x="64" y="380" width="412" height="120" rx="22" fill="#16314A"/>
  <rect x="64" y="528" width="198" height="64" rx="22" fill="#22C55E"/>
  <rect x="278" y="528" width="198" height="64" rx="22" fill="#1E293B"/>
  <rect x="64" y="608" width="412" height="52" rx="26" fill="#0F1A2A" stroke="#29405E"/>
  <circle cx="270" cy="634" r="18" fill="#22C55E"/>
</svg>
